<svg width="24" height="24" viewBox="0 0 24 24" fill="none" xmlns="http://www.w3.org/2000/svg">
<rect x="2" y="2" width="20" height="20" rx="10" fill="#FF990A"/>
<path d="M13 14.1094H11L10.7969 6.1875H13.2031L13 14.1094ZM12.0156 17.6406C11.776 17.6406 11.5547 17.5807 11.3516 17.4609C11.1484 17.3411 10.987 17.1823 10.8672 16.9844C10.7526 16.7812 10.6979 16.5625 10.7031 16.3281C10.6979 16.0938 10.7526 15.8776 10.8672 15.6797C10.987 15.4818 11.1484 15.3255 11.3516 15.2109C11.5547 15.0911 11.776 15.0312 12.0156 15.0312C12.2396 15.0312 12.4505 15.0911 12.6484 15.2109C12.8516 15.3255 13.013 15.4818 13.1328 15.6797C13.2526 15.8776 13.3125 16.0938 13.3125 16.3281C13.3125 16.5625 13.2526 16.7812 13.1328 16.9844C13.013 17.1823 12.8516 17.3411 12.6484 17.4609C12.4505 17.5807 12.2396 17.6406 12.0156 17.6406Z" fill="white"/>
</svg>
