<svg width="24" height="24" viewBox="0 0 24 24" fill="none" xmlns="http://www.w3.org/2000/svg">
<path fill-rule="evenodd" clip-rule="evenodd" d="M16.5 2.25C16.0245 2.24984 15.5548 2.35402 15.1239 2.55519C14.6931 2.75636 14.3116 3.04962 14.0065 3.41428C13.7013 3.77894 13.4799 4.20611 13.3578 4.66567C13.2358 5.12523 13.216 5.60598 13.3 6.074L8.57 9.386L8.502 9.439C8.02214 9.06388 7.44652 8.83116 6.84078 8.76737C6.23505 8.70358 5.62358 8.8113 5.0761 9.07823C4.52862 9.34516 4.06717 9.76057 3.74437 10.2771C3.42157 10.7936 3.25042 11.3904 3.25042 11.9995C3.25042 12.6086 3.42157 13.2054 3.74437 13.7219C4.06717 14.2384 4.52862 14.6538 5.0761 14.9208C5.62358 15.1877 6.23505 15.2954 6.84078 15.2316C7.44652 15.1678 8.02214 14.9351 8.502 14.56L8.57 14.614L13.3 17.926C13.2667 18.1127 13.25 18.304 13.25 18.5C13.2501 19.2705 13.524 20.0159 14.0227 20.6031C14.5214 21.1904 15.2126 21.5815 15.9729 21.7064C16.7331 21.8314 17.5131 21.6822 18.1736 21.2854C18.834 20.8887 19.3321 20.2702 19.5788 19.5403C19.8256 18.8104 19.805 18.0166 19.5207 17.3004C19.2365 16.5843 18.7071 15.9925 18.0269 15.6305C17.3468 15.2685 16.5601 15.1599 15.8073 15.3241C15.0546 15.4883 14.3846 15.9146 13.917 16.527L9.438 13.39C9.638 12.968 9.75 12.497 9.75 11.999C9.75 11.501 9.638 11.029 9.438 10.608L13.918 7.472C14.2535 7.91147 14.6955 8.25809 15.2023 8.47908C15.7091 8.70007 16.2639 8.78812 16.8142 8.73491C17.3645 8.6817 17.8921 8.48898 18.3472 8.17498C18.8022 7.86098 19.1696 7.43609 19.4147 6.94049C19.6597 6.44489 19.7743 5.89496 19.7475 5.34274C19.7208 4.79051 19.5536 4.25424 19.2618 3.78465C18.97 3.31506 18.5632 2.92767 18.0799 2.65913C17.5967 2.39059 17.0529 2.24977 16.5 2.25ZM14.75 5.5C14.75 5.03587 14.9344 4.59075 15.2626 4.26256C15.5908 3.93437 16.0359 3.75 16.5 3.75C16.9641 3.75 17.4092 3.93437 17.7374 4.26256C18.0656 4.59075 18.25 5.03587 18.25 5.5C18.25 5.96413 18.0656 6.40925 17.7374 6.73744C17.4092 7.06563 16.9641 7.25 16.5 7.25C16.0359 7.25 15.5908 7.06563 15.2626 6.73744C14.9344 6.40925 14.75 5.96413 14.75 5.5ZM6.5 10.25C6.03587 10.25 5.59075 10.4344 5.26256 10.7626C4.93437 11.0908 4.75 11.5359 4.75 12C4.75 12.4641 4.93437 12.9092 5.26256 13.2374C5.59075 13.5656 6.03587 13.75 6.5 13.75C6.96413 13.75 7.40925 13.5656 7.73744 13.2374C8.06563 12.9092 8.25 12.4641 8.25 12C8.25 11.5359 8.06563 11.0908 7.73744 10.7626C7.40925 10.4344 6.96413 10.25 6.5 10.25ZM16.5 16.75C16.0359 16.75 15.5908 16.9344 15.2626 17.2626C14.9344 17.5908 14.75 18.0359 14.75 18.5C14.75 18.9641 14.9344 19.4092 15.2626 19.7374C15.5908 20.0656 16.0359 20.25 16.5 20.25C16.9641 20.25 17.4092 20.0656 17.7374 19.7374C18.0656 19.4092 18.25 18.9641 18.25 18.5C18.25 18.0359 18.0656 17.5908 17.7374 17.2626C17.4092 16.9344 16.9641 16.75 16.5 16.75Z" fill="black"/>
</svg>
