<svg width="135" height="29" viewBox="0 0 135 29" fill="none" xmlns="http://www.w3.org/2000/svg">
<g clip-path="url(#clip0_544_1255)">
<path d="M2.18297 0.83002H10.883V1.88002C14.033 1.10002 17.303 0.680019 20.393 0.680019C28.013 0.680019 32.003 2.96002 32.003 7.31002C32.003 8.90002 31.643 10.4 30.833 12.02H31.703L32.003 18.47H21.443V20.57H33.443V27.17H0.742969V20.57H12.743V18.47H12.083C5.18297 18.47 2.18297 16.13 2.18297 10.79V0.83002ZM10.883 8.87002C10.883 11.48 11.693 12.02 15.653 12.02H22.493C23.003 11.03 23.153 10.31 23.153 9.41002C23.153 7.64002 21.713 7.01002 17.573 7.01002C15.593 7.01002 13.133 7.37002 10.883 7.94002V8.87002ZM45.8665 17.3C39.2665 17.3 34.7965 14 34.7965 9.08002H42.7765C43.0165 10.25 44.0965 11.15 45.8665 11.15C47.8165 11.15 49.0165 10.13 49.0165 8.54002C49.0165 6.98002 47.8165 5.99002 45.8665 5.99002C44.0065 5.99002 42.7465 7.07002 42.7465 8.78002L34.7965 8.18002C34.7965 2.99002 39.2965 0.0200195 45.8665 0.0200195C52.6465 0.0200195 56.9665 3.29002 56.9665 8.66002C56.9665 14 52.6165 17.3 45.8665 17.3ZM36.8965 22.55C41.4565 21.41 44.9665 20.15 49.2565 18.05H54.5365C58.8265 20.15 62.3365 21.41 66.8965 22.55L64.5565 28.07C60.5365 27.65 55.4665 26.24 51.8965 24.32C48.3265 26.24 43.2565 27.65 39.2365 28.07L36.8965 22.55ZM57.5965 18.8V0.0800188H65.9965V18.8H57.5965ZM91.2 0.0800188H99.75V27.92H91.2V0.0800188ZM68.7 26.51C68.7 14.84 69.24 10.61 70.92 7.19002H68.85V0.74002H89.82V7.19002H79.11C78.75 7.94002 78.48 8.66002 78.21 9.41002C79.83 9.05002 81.45 8.84002 82.83 8.84002C88.17 8.84002 89.97 11 89.97 17.45V26.51L82.17 26.81V17.78C82.17 16.22 81.6 15.68 79.86 15.68C79.14 15.68 78 15.8 76.86 16.1C76.59 18.86 76.5 22.25 76.5 26.81L68.7 26.51ZM120.909 12.2C123.189 12.2 124.359 11.3 124.359 9.89002C124.359 8.48002 123.189 7.61002 120.909 7.61002C118.809 7.61002 117.519 8.78002 117.489 11.3L107.409 10.67C107.709 3.92002 112.929 0.800021 120.909 0.800021C129.099 0.800021 134.409 4.13002 134.409 9.89002C134.409 14.66 130.869 17.63 125.109 18.65V20.3L115.509 19.7V12.2H120.909ZM115.509 26.6V20.6H125.109V26.6H115.509Z" fill="white"/>
</g>
<defs>
<clipPath id="clip0_544_1255">
<rect width="135" height="29" fill="white"/>
</clipPath>
</defs>
</svg>
