<svg width="142" height="33" viewBox="0 0 142 33" fill="none" xmlns="http://www.w3.org/2000/svg">
<g clip-path="url(#clip0_544_1255)">
<path d="M2.87676 1.41601H11.9506V2.57463C15.2359 1.71394 18.6464 1.25049 21.8692 1.25049C29.8165 1.25049 33.978 3.76636 33.978 8.56636C33.978 10.3208 33.6025 11.976 32.7577 13.7636H33.6651L33.978 20.8808H22.9643V23.1981H35.4798V30.4808H1.3749V23.1981H13.8905V20.8808H13.2021C6.00565 20.8808 2.87676 18.2988 2.87676 12.4064V1.41601ZM11.9506 10.2877C11.9506 13.1677 12.7954 13.7636 16.9255 13.7636H24.0594C24.5913 12.6712 24.7477 11.8767 24.7477 10.8836C24.7477 8.93049 23.2459 8.23532 18.928 8.23532C16.8629 8.23532 14.2972 8.63256 11.9506 9.26153V10.2877ZM48.4371 19.5898C41.5535 19.5898 36.8915 15.9484 36.8915 10.5195H45.2143C45.4646 11.8105 46.591 12.8036 48.4371 12.8036C50.4709 12.8036 51.7224 11.6781 51.7224 9.9236C51.7224 8.20222 50.4709 7.1098 48.4371 7.1098C46.4972 7.1098 45.183 8.30153 45.183 10.1884L36.8915 9.52636C36.8915 3.79946 41.5848 0.522217 48.4371 0.522217C55.5084 0.522217 60.014 4.13049 60.014 10.056C60.014 15.9484 55.4771 19.5898 48.4371 19.5898ZM39.0817 25.3829C43.8376 24.125 47.4984 22.7346 51.9727 20.4174H57.4796C61.9539 22.7346 65.6147 24.125 70.3706 25.3829L67.9301 31.4739C63.7373 31.0105 58.4495 29.4546 54.7261 27.336C51.0028 29.4546 45.7149 31.0105 41.5222 31.4739L39.0817 25.3829ZM60.671 21.245V0.588423H69.4319V21.245H60.671ZM95.7182 0.588423H104.636V31.3084H95.7182V0.588423ZM72.2516 29.7526C72.2516 16.8753 72.8148 12.2077 74.567 8.43394H72.408V1.3167H94.279V8.43394H83.1088C82.7334 9.26153 82.4518 10.056 82.1702 10.8836C83.8598 10.4864 85.5494 10.2546 86.9886 10.2546C92.5581 10.2546 94.4354 12.6381 94.4354 19.7553V29.7526L86.3003 30.0836V20.1195C86.3003 18.3981 85.7058 17.8022 83.891 17.8022C83.1401 17.8022 81.9511 17.9346 80.7622 18.2657C80.4806 21.3112 80.3867 25.0519 80.3867 30.0836L72.2516 29.7526ZM126.704 13.9622C129.082 13.9622 130.302 12.9691 130.302 11.4133C130.302 9.85739 129.082 8.89739 126.704 8.89739C124.513 8.89739 123.168 10.1884 123.137 12.9691L112.624 12.2739C112.937 4.82567 118.381 1.38291 126.704 1.38291C135.246 1.38291 140.784 5.05739 140.784 11.4133C140.784 16.6767 137.092 19.9539 131.084 21.0795V22.9001L121.072 22.2381V13.9622H126.704ZM121.072 29.8519V23.2312H131.084V29.8519H121.072Z" fill="white"/>
</g>
<defs>
<clipPath id="clip0_544_1255">
<rect width="140.8" height="32" fill="white" transform="translate(0.600006 0.5)"/>
</clipPath>
</defs>
</svg>
